<svg width="24" height="24" viewBox="0 0 24 24" fill="none" xmlns="http://www.w3.org/2000/svg">
<path fill-rule="evenodd" clip-rule="evenodd" d="M12 3.03704C7.04989 3.03704 3.03704 7.04989 3.03704 12C3.03704 16.9501 7.04989 20.963 12 20.963C16.9501 20.963 20.963 16.9501 20.963 12C20.963 7.04989 16.9501 3.03704 12 3.03704ZM2 12C2 6.47715 6.47715 2 12 2C17.5228 2 22 6.47715 22 12C22 17.5228 17.5228 22 12 22C6.47715 22 2 17.5228 2 12ZM15.9221 15.9222C15.7196 16.1246 15.3913 16.1246 15.1888 15.9222L11.9999 12.7332L8.81095 15.9222C8.60845 16.1246 8.28015 16.1246 8.07765 15.9222C7.87516 15.7197 7.87516 15.3913 8.07765 15.1889L11.2666 11.9999L8.07765 8.81104C7.87516 8.60854 7.87516 8.28024 8.07765 8.07774C8.28015 7.87525 8.60845 7.87525 8.81095 8.07774L11.9999 11.2667L15.1888 8.07774C15.3913 7.87525 15.7196 7.87525 15.9221 8.07774C16.1246 8.28024 16.1246 8.60854 15.9221 8.81104L12.7332 11.9999L15.9221 15.1889C16.1246 15.3913 16.1246 15.7197 15.9221 15.9222Z" fill="#1A1A1A"/>
</svg>
