<svg width="20" height="20" viewBox="0 0 20 20" fill="none" xmlns="http://www.w3.org/2000/svg">
<path d="M18.8994 11C19.4517 11 19.8994 10.5522 19.8994 9.99996C19.8994 9.44767 19.4517 8.99996 18.8994 8.99996H10.9999V1.10046C10.9999 0.548178 10.5522 0.100464 9.9999 0.100464C9.44761 0.100464 8.9999 0.548179 8.9999 1.10046L8.9999 8.99996L1.1004 8.99996C0.548116 8.99996 0.100403 9.44767 0.100403 9.99996C0.100403 10.5522 0.548118 11 1.1004 11H8.9999L8.9999 18.8995C8.9999 19.4517 9.44761 19.8995 9.9999 19.8995C10.5522 19.8995 10.9999 19.4517 10.9999 18.8995V11H18.8994Z" fill="white"/>
</svg>
