<svg width="24" height="24" viewBox="0 0 24 24" fill="none" xmlns="http://www.w3.org/2000/svg">
<path fill-rule="evenodd" clip-rule="evenodd" d="M3.0028 6.5C3.0028 6.22386 3.22666 6 3.5028 6H20.2769C20.553 6 20.7769 6.22386 20.7769 6.5C20.7769 6.77614 20.553 7 20.2769 7H3.5028C3.22666 7 3.0028 6.77614 3.0028 6.5ZM3 12.0913C3 11.8152 3.22386 11.5913 3.5 11.5913H20.2699C20.546 11.5913 20.7699 11.8152 20.7699 12.0913C20.7699 12.3675 20.546 12.5913 20.2699 12.5913H3.5C3.22386 12.5913 3 12.3675 3 12.0913ZM3.5028 17.1827C3.22666 17.1827 3.0028 17.4065 3.0028 17.6827C3.0028 17.9588 3.22666 18.1827 3.5028 18.1827H20.2699C20.546 18.1827 20.7699 17.9588 20.7699 17.6827C20.7699 17.4065 20.546 17.1827 20.2699 17.1827H3.5028Z" fill="#1A1A1A"/>
</svg>
