<svg width="20" height="20" viewBox="0 0 20 20" fill="none" xmlns="http://www.w3.org/2000/svg">
<path d="M18.963 9.99996C18.963 5.04987 14.9501 1.03703 10 1.03703C9.71367 1.03703 9.48152 0.804886 9.48152 0.518517C9.48152 0.232148 9.71367 0 10 0C15.5229 0 20 4.47714 20 9.99996C20 15.5228 15.5229 19.9999 10 19.9999C4.47721 19.9999 7.24792e-05 15.5228 7.24792e-05 9.99996C7.24792e-05 6.8931 1.38427 4.07165 3.60602 2.22221H0.518517C0.232147 2.22221 0 1.99006 0 1.70369C0 1.41732 0.232147 1.18518 0.518517 1.18518H5.24947C5.27124 1.18478 5.29294 1.18576 5.31446 1.18808C5.38215 1.19525 5.44594 1.21544 5.5033 1.2461C5.5805 1.28716 5.64816 1.34819 5.69775 1.42685C5.71601 1.45572 5.7315 1.48652 5.74385 1.51887C5.76845 1.58311 5.77941 1.65011 5.77776 1.71619V6.44442C5.77776 6.73079 5.54561 6.96293 5.25924 6.96293C4.97287 6.96293 4.74072 6.73079 4.74072 6.44442V2.65356C2.48196 4.28547 1.03711 6.98765 1.03711 9.99996C1.03711 14.9501 5.04995 18.9629 10 18.9629C14.9501 18.9629 18.963 14.9501 18.963 9.99996Z" fill="#1A1A1A"/>
</svg>
